{
  "accessors": [
    {
      "bufferView": 2,
      "componentType": 5126,
      "count": 7130,
      "max": [
        22.524637222290039,
        214.6307373046875,
        5.8524532318115234
      ],
      "min": [
        -22.490808486938477,
        -97.534439086914062,
        -35.705940246582031
      ],
      "type": "VEC3"
    },
    {
      "bufferView": 2,
      "byteOffset": 85560,
      "componentType": 5126,
      "count": 7130,
      "max": [
        1,
        1,
        1
      ],
      "min": [
        -1,
        -1,
        -0.99998825788497925
      ],
      "type": "VEC3"
    },
    {
      "bufferView": 3,
      "componentType": 5126,
      "count": 7130,
      "max": [
        1,
        0.99999648332595825,
        1,
        1
      ],
      "min": [
        -1,
        -0.99997836351394653,
        -1,
        -1
      ],
      "type": "VEC4"
    },
    {
      "bufferView": 1,
      "componentType": 5126,
      "count": 7130,
      "max": [
        0.99642699956893921,
        0.99949997663497925
      ],
      "min": [
        0.00050000002374872565,
        0.00050000002374872565
      ],
      "type": "VEC2"
    },
    {
      "bufferView": 0,
      "componentType": 5125,
      "count": 32052,
      "max": [
        7129
      ],
      "min": [
        0
      ],
      "type": "SCALAR"
    },
    {
      "bufferView": 2,
      "byteOffset": 171120,
      "componentType": 5126,
      "count": 1268,
      "max": [
        75.738151550292969,
        16.792621612548828,
        5.5574488639831543
      ],
      "min": [
        -75.733711242675781,
        -175.31462097167969,
        -35.913124084472656
      ],
      "type": "VEC3"
    },
    {
      "bufferView": 2,
      "byteOffset": 186336,
      "componentType": 5126,
      "count": 1268,
      "max": [
        0.99999886751174927,
        1,
        0.9999997615814209
      ],
      "min": [
        -0.99999910593032837,
        -1,
        -1
      ],
      "type": "VEC3"
    },
    {
      "bufferView": 3,
      "byteOffset": 114080,
      "componentType": 5126,
      "count": 1268,
      "max": [
        0.99999910593032837,
        0.95130038261413574,
        1,
        1
      ],
      "min": [
        -0.99999785423278809,
        -0.99987500905990601,
        -0.99993449449539185,
        -1
      ],
      "type": "VEC4"
    },
    {
      "bufferView": 1,
      "byteOffset": 57040,
      "componentType": 5126,
      "count": 1268,
      "max": [
        0.99790799617767334,
        0.99399101734161377
      ],
      "min": [
        0.001234999974258244,
        0.0032399999909102917
      ],
      "type": "VEC2"
    },
    {
      "bufferView": 0,
      "byteOffset": 128208,
      "componentType": 5125,
      "count": 5334,
      "max": [
        1267
      ],
      "min": [
        0
      ],
      "type": "SCALAR"
    }
  ],
  "asset": {
    "extras": {
      "author": "Raphael Escamilla (https://sketchfab.com/Raffey)",
      "license": "CC-BY-4.0 (http://creativecommons.org/licenses/by/4.0/)",
      "source": "https://sketchfab.com/3d-models/designer-guitar-d45111cbe4d84c9bbf37784bc140dca3",
      "title": "Designer Guitar"
    },
    "generator": "Sketchfab-8.42.0",
    "version": "2.0"
  },
  "bufferViews": [
    {
      "buffer": 0,
      "byteLength": 149544,
      "byteOffset": 0,
      "name": "floatBufferViews",
      "target": 34963
    },
    {
      "buffer": 0,
      "byteLength": 67184,
      "byteOffset": 149544,
      "byteStride": 8,
      "name": "floatBufferViews",
      "target": 34962
    },
    {
      "buffer": 0,
      "byteLength": 201552,
      "byteOffset": 216728,
      "byteStride": 12,
      "name": "floatBufferViews",
      "target": 34962
    },
    {
      "buffer": 0,
      "byteLength": 134368,
      "byteOffset": 418280,
      "byteStride": 16,
      "name": "floatBufferViews",
      "target": 34962
    }
  ],
  "buffers": [
    {
      "byteLength": 552648,
      "uri": "scene.bin"
    }
  ],
  "images": [
    {
      "uri": "textures/body_baseColor.jpeg"
    },
    {
      "uri": "textures/body_metallicRoughness.png"
    },
    {
      "uri": "textures/body_normal.png"
    },
    {
      "uri": "textures/neck_baseColor.jpeg"
    },
    {
      "uri": "textures/neck_metallicRoughness.png"
    },
    {
      "uri": "textures/neck_normal.png"
    }
  ],
  "materials": [
    {
      "doubleSided": true,
      "name": "body",
      "normalTexture": {
        "index": 2,
        "scale": 1,
        "texCoord": 0
      },
      "occlusionTexture": {
        "index": 1,
        "strength": 1,
        "texCoord": 0
      },
      "pbrMetallicRoughness": {
        "baseColorFactor": [
          1,
          1,
          1,
          1
        ],
        "baseColorTexture": {
          "index": 0,
          "texCoord": 0
        },
        "metallicFactor": 1,
        "metallicRoughnessTexture": {
          "index": 1,
          "texCoord": 0
        },
        "roughnessFactor": 1
      }
    },
    {
      "doubleSided": true,
      "name": "neck",
      "normalTexture": {
        "index": 5,
        "scale": 1,
        "texCoord": 0
      },
      "occlusionTexture": {
        "index": 4,
        "strength": 1,
        "texCoord": 0
      },
      "pbrMetallicRoughness": {
        "baseColorFactor": [
          1,
          1,
          1,
          1
        ],
        "baseColorTexture": {
          "index": 3,
          "texCoord": 0
        },
        "metallicFactor": 1,
        "metallicRoughnessTexture": {
          "index": 4,
          "texCoord": 0
        },
        "roughnessFactor": 1
      }
    }
  ],
  "meshes": [
    {
      "name": "defaultMaterial",
      "primitives": [
        {
          "attributes": {
            "NORMAL": 1,
            "POSITION": 0,
            "TANGENT": 2,
            "TEXCOORD_0": 3
          },
          "indices": 4,
          "material": 1,
          "mode": 4
        }
      ]
    },
    {
      "name": "defaultMaterial",
      "primitives": [
        {
          "attributes": {
            "NORMAL": 6,
            "POSITION": 5,
            "TANGENT": 7,
            "TEXCOORD_0": 8
          },
          "indices": 9,
          "material": 0,
          "mode": 4
        }
      ]
    }
  ],
  "nodes": [
    {
      "children": [
        1
      ],
      "name": "RootNode (gltf orientation matrix)",
      "rotation": [
        -0.70710678118654746,
        -0,
        -0,
        0.70710678118654757
      ]
    },
    {
      "children": [
        2
      ],
      "matrix": [
        0.0026925718411803246,
        0,
        0,
        0,
        0,
        0.0026925718411803246,
        0,
        0,
        0,
        0,
        0.0026925718411803246,
        0,
        0,
        0,
        0,
        1
      ],
      "name": "RootNode (model correction matrix)"
    },
    {
      "children": [
        3,
        5
      ],
      "matrix": [
        1,
        0,
        0,
        0,
        0,
        -4.3711390063094768e-08,
        0.999999999999999,
        0,
        0,
        -0.999999999999999,
        -4.3711390063094768e-08,
        0,
        0,
        0,
        0,
        1
      ],
      "name": "Collada visual scene group"
    },
    {
      "children": [
        4
      ],
      "name": "low_poly"
    },
    {
      "mesh": 0,
      "name": "defaultMaterial"
    },
    {
      "children": [
        6
      ],
      "name": "low_poly"
    },
    {
      "mesh": 1,
      "name": "defaultMaterial"
    }
  ],
  "samplers": [
    {
      "magFilter": 9729,
      "minFilter": 9987,
      "wrapS": 10497,
      "wrapT": 10497
    }
  ],
  "scene": 0,
  "scenes": [
    {
      "name": "OSG_Scene",
      "nodes": [
        0
      ]
    }
  ],
  "textures": [
    {
      "sampler": 0,
      "source": 0
    },
    {
      "sampler": 0,
      "source": 1
    },
    {
      "sampler": 0,
      "source": 2
    },
    {
      "sampler": 0,
      "source": 3
    },
    {
      "sampler": 0,
      "source": 4
    },
    {
      "sampler": 0,
      "source": 5
    }
  ]
}

